# xmcd
#
# Track frame offsets:
#	150
#	19577
#	32854
#	49581
#	61733
#	79360
#	92187
#	112889
#	133366
#	148368
#	166970
#	185647
#
# Disc length: 2700 seconds
#
# Revision: 0
# Processed by: cddbd v1.5.2PL0 Copyright (c) Steve Scherf et al.
# Submitted via: EasyCDDAExtractor 16.0.8.2
#
DISCID=a90a8a0c
DTITLE=Συλλογικός δίσκος - Τα καλυτερότερα λαϊκά  
DYEAR=1900
DGENRE=Λαϊκή
TTITLE0=Κωνσταντίνα - Μιά Ελλάδα φως
TTITLE1=Γιαγκούση Λίτσα - Έκλαψα, πόνεσα
TTITLE2=Αλκαίος Γιώργος - Κοίτα με
TTITLE3=Αλεξία - Θέλω κοντά σου να μείνω
TTITLE4=Βόσσου Σοφία - Στου φεγγαριού την αγκαλιά
TTITLE5=Αυγερινός Χρήστος - Για τα μάτια του κόσμου
TTITLE6=Τουρνάς Κώστας - Αλητείες
TTITLE7=Γονίδης Σταμάτης - Όλα σ' αγαπάνε
TTITLE8=Αλεξία - Θα πιω απόψε το φεγγάρι
TTITLE9=Κωνσταντίνα - Σαν τριαντάφυλλο (Una rosa es una rosa)
TTITLE10=Χαριτοδιπλωμένος Κώστας - Καίγομαι
TTITLE11=Αρβανίτη Σοφία - Μόνη περπατώ
EXTD=
EXTT0=
EXTT1=
EXTT2=
EXTT3=
EXTT4=
EXTT5=
EXTT6=
EXTT7=
EXTT8=
EXTT9=
EXTT10=
EXTT11=
PLAYORDER=
